# xmcd CD database file
#
# Track frame offsets:
#	150
#	17667
#	37612
#	79834
#	98426
#	113171
#	212171
#	242469
#	264543
#
# Disc length: 3999 seconds
#
# Revision: 0
# Processed by: cddbd v1.5.2PL0 Copyright (c) Steve Scherf et al.
# Submitted via: CDex 1.75
#
DISCID=610f9d09
DTITLE=Thelonius Monk - Thelonious himself
DYEAR=1957
DGENRE=Jazz
TTITLE0=April in Paris
TTITLE1=A ghost of a chance
TTITLE2=Functional
TTITLE3=I'm getting sentimental over you
TTITLE4=I should care
TTITLE5='Round midnight (in progress)
TTITLE6='Round midnight
TTITLE7=All alone
TTITLE8=Monk's mood
EXTD=YEAR: 1957
EXTT0=
EXTT1=
EXTT2=
EXTT3=
EXTT4=
EXTT5=
EXTT6=
EXTT7=
EXTT8=
PLAYORDER=
